<svg width="20" height="20" viewBox="0 0 20 20" fill="none" xmlns="http://www.w3.org/2000/svg">
<path d="M14.999 6.59172C14.974 6.59172 14.9573 6.59172 14.9323 6.59172H14.8906C13.3156 6.54172 12.1406 5.32505 12.1406 3.82505C12.1406 2.29172 13.3906 1.05005 14.9156 1.05005C16.4406 1.05005 17.6906 2.30005 17.6906 3.82505C17.6823 5.33338 16.5073 6.55005 15.0073 6.60005C15.0073 6.59172 15.0073 6.59172 14.999 6.59172ZM14.9156 2.29172C14.074 2.29172 13.3906 2.97505 13.3906 3.81672C13.3906 4.64172 14.0323 5.30839 14.8573 5.34172C14.8656 5.33339 14.9323 5.33339 15.0073 5.34172C15.8156 5.30006 16.4406 4.63339 16.449 3.81672C16.449 2.97505 15.7656 2.29172 14.9156 2.29172Z" fill="#333333"/>
<path d="M15.0078 12.7334C14.6828 12.7334 14.3578 12.7084 14.0328 12.65C13.6911 12.5917 13.4661 12.2667 13.5244 11.925C13.5828 11.5834 13.9078 11.3584 14.2494 11.4167C15.2744 11.5917 16.3578 11.4 17.0828 10.9167C17.4744 10.6584 17.6828 10.3334 17.6828 10.0084C17.6828 9.68337 17.4661 9.3667 17.0828 9.10837C16.3578 8.62504 15.2578 8.43337 14.2244 8.61671C13.8828 8.68337 13.5578 8.45004 13.4994 8.10837C13.4411 7.76671 13.6661 7.44171 14.0078 7.38338C15.3661 7.14171 16.7744 7.40004 17.7744 8.0667C18.5078 8.55837 18.9328 9.25837 18.9328 10.0084C18.9328 10.75 18.5161 11.4584 17.7744 11.9584C17.0161 12.4584 16.0328 12.7334 15.0078 12.7334Z" fill="#333333"/>
<path d="M4.97539 6.59163C4.96706 6.59163 4.95873 6.59163 4.95873 6.59163C3.45873 6.54163 2.28372 5.32496 2.27539 3.82496C2.27539 2.29162 3.52539 1.04163 5.05039 1.04163C6.57539 1.04163 7.82539 2.29163 7.82539 3.81663C7.82539 5.32496 6.65039 6.54163 5.15039 6.59163L4.97539 5.96663L5.03373 6.59163C5.01706 6.59163 4.99206 6.59163 4.97539 6.59163ZM5.05872 5.34163C5.10872 5.34163 5.15039 5.34162 5.20039 5.34996C5.94206 5.31662 6.59206 4.64996 6.59206 3.82496C6.59206 2.98329 5.90873 2.29995 5.06706 2.29995C4.22539 2.29995 3.54206 2.98329 3.54206 3.82496C3.54206 4.64162 4.17539 5.29996 4.98372 5.34996C4.99206 5.34162 5.02539 5.34163 5.05872 5.34163Z" fill="#333333"/>
<path d="M4.96602 12.7334C3.94102 12.7334 2.95768 12.4584 2.19935 11.9584C1.46602 11.4667 1.04102 10.7584 1.04102 10.0084C1.04102 9.26671 1.46602 8.55837 2.19935 8.0667C3.19935 7.40004 4.60768 7.14171 5.96602 7.38338C6.30768 7.44171 6.53268 7.76671 6.47435 8.10837C6.41602 8.45004 6.09102 8.68337 5.74935 8.61671C4.71602 8.43337 3.62435 8.62504 2.89102 9.10837C2.49935 9.3667 2.29102 9.68337 2.29102 10.0084C2.29102 10.3334 2.50768 10.6584 2.89102 10.9167C3.61602 11.4 4.69935 11.5917 5.72435 11.4167C6.06601 11.3584 6.39102 11.5917 6.44935 11.925C6.50768 12.2667 6.28268 12.5917 5.94102 12.65C5.61602 12.7084 5.29102 12.7334 4.96602 12.7334Z" fill="#333333"/>
<path d="M9.99896 12.8167C9.97396 12.8167 9.95729 12.8167 9.93229 12.8167H9.89062C8.31562 12.7667 7.14062 11.55 7.14062 10.05C7.14062 8.51669 8.39063 7.27502 9.91563 7.27502C11.4406 7.27502 12.6906 8.52503 12.6906 10.05C12.6823 11.5584 11.5073 12.775 10.0073 12.825C10.0073 12.8167 10.0073 12.8167 9.99896 12.8167ZM9.91563 8.5167C9.07396 8.5167 8.39062 9.20003 8.39062 10.0417C8.39062 10.8667 9.03229 11.5334 9.85729 11.5667C9.86563 11.5584 9.93229 11.5584 10.0073 11.5667C10.8156 11.525 11.4406 10.8584 11.449 10.0417C11.449 9.20836 10.7656 8.5167 9.91563 8.5167Z" fill="#333333"/>
<path d="M9.99974 18.9666C8.99974 18.9666 7.99974 18.7083 7.22474 18.1833C6.49141 17.6916 6.06641 16.9916 6.06641 16.2416C6.06641 15.4999 6.48307 14.7833 7.22474 14.2916C8.78307 13.2583 11.2247 13.2583 12.7747 14.2916C13.5081 14.7833 13.9331 15.4833 13.9331 16.2333C13.9331 16.9749 13.5164 17.6916 12.7747 18.1833C11.9997 18.6999 10.9997 18.9666 9.99974 18.9666ZM7.91641 15.3416C7.52474 15.5999 7.31641 15.9249 7.31641 16.2499C7.31641 16.5749 7.53307 16.8916 7.91641 17.1499C9.04141 17.9083 10.9497 17.9083 12.0747 17.1499C12.4664 16.8916 12.6747 16.5666 12.6747 16.2416C12.6747 15.9166 12.4581 15.5999 12.0747 15.3416C10.9581 14.5833 9.04974 14.5916 7.91641 15.3416Z" fill="#333333"/>
</svg>
