<svg width="18" height="18" viewBox="0 0 18 18" fill="none" xmlns="http://www.w3.org/2000/svg">
<path opacity="0.4" d="M11.175 1.5H6.825C6.315 1.5 5.595 1.8 5.235 2.16L2.16 5.23501C1.8 5.59501 1.5 6.315 1.5 6.825V11.175C1.5 11.685 1.8 12.405 2.16 12.765L5.235 15.84C5.595 16.2 6.315 16.5 6.825 16.5H11.175C11.685 16.5 12.405 16.2 12.765 15.84L15.84 12.765C16.2 12.405 16.5 11.685 16.5 11.175V6.825C16.5 6.315 16.2 5.59501 15.84 5.23501L12.765 2.16C12.405 1.8 11.685 1.5 11.175 1.5Z" fill="#A68D00"/>
<path d="M2.2657 16.3127C2.1232 16.3127 1.9807 16.2602 1.8682 16.1477C1.6507 15.9302 1.6507 15.5702 1.8682 15.3527L15.3532 1.86771C15.5707 1.65021 15.9307 1.65021 16.1482 1.86771C16.3657 2.08521 16.3657 2.44521 16.1482 2.66271L2.6632 16.1477C2.5582 16.2602 2.4157 16.3127 2.2657 16.3127Z" fill="#A68D00"/>
</svg>
