<svg width="32" height="32" viewBox="0 0 32 32" fill="none" xmlns="http://www.w3.org/2000/svg">
<path d="M21.586 2.6665H10.4127C5.55935 2.6665 2.66602 5.55984 2.66602 10.4132V21.5732C2.66602 26.4398 5.55935 29.3332 10.4127 29.3332H21.5727C26.426 29.3332 29.3193 26.4398 29.3193 21.5865V10.4132C29.3327 5.55984 26.4394 2.6665 21.586 2.6665ZM14.5993 23.3465C14.2127 23.7332 13.4793 24.1065 12.946 24.1865L9.66602 24.6532C9.54602 24.6665 9.42602 24.6798 9.30602 24.6798C8.75935 24.6798 8.25268 24.4932 7.89268 24.1332C7.45268 23.6932 7.26602 23.0532 7.37268 22.3465L7.83935 19.0665C7.91935 18.5198 8.27935 17.7998 8.67935 17.4132L14.626 11.4665C14.7327 11.7465 14.8393 12.0265 14.986 12.3465C15.1193 12.6265 15.266 12.9198 15.426 13.1865C15.5593 13.4132 15.706 13.6265 15.826 13.7865C15.9727 14.0132 16.146 14.2265 16.2527 14.3465C16.3193 14.4398 16.3727 14.5065 16.3993 14.5332C16.7327 14.9332 17.1193 15.3065 17.4527 15.5865C17.546 15.6798 17.5993 15.7332 17.626 15.7465C17.826 15.9065 18.026 16.0665 18.1993 16.1865C18.4127 16.3465 18.626 16.4932 18.8527 16.6132C19.1194 16.7732 19.4127 16.9198 19.706 17.0665C20.0127 17.1998 20.2927 17.3198 20.5727 17.4132L14.5993 23.3465ZM23.1594 14.7865L21.9327 16.0265C21.8527 16.1065 21.746 16.1465 21.6393 16.1465C21.5993 16.1465 21.546 16.1465 21.5193 16.1332C18.8127 15.3598 16.6527 13.1998 15.8793 10.4932C15.8393 10.3465 15.8793 10.1865 15.986 10.0932L17.226 8.85317C19.2527 6.8265 21.186 6.8665 23.1727 8.85317C24.186 9.8665 24.6793 10.8398 24.6793 11.8532C24.666 12.8132 24.1727 13.7732 23.1594 14.7865Z" fill="#8F8F8F"/>
</svg>
