<svg width="18" height="18" viewBox="0 0 18 18" fill="none" xmlns="http://www.w3.org/2000/svg">
<path opacity="0.4" d="M11.61 2.25H5.64C3.0525 2.25 1.5 3.795 1.5 6.39V12.3525C1.5 14.955 3.0525 16.5 5.64 16.5H11.6025C14.1975 16.5 15.7425 14.955 15.7425 12.36V6.39C15.75 3.795 14.1975 2.25 11.61 2.25Z" fill="#2B6CB0"/>
<path d="M15.7656 2.23521C14.4231 0.885207 13.1106 0.855207 11.7306 2.23521L10.8831 3.07521C10.8081 3.15021 10.7856 3.25521 10.8156 3.35271C11.3406 5.19021 12.8106 6.66021 14.6481 7.18521C14.6706 7.19271 14.7081 7.19271 14.7306 7.19271C14.8056 7.19271 14.8806 7.16271 14.9331 7.11021L15.7656 6.27021C16.4481 5.58771 16.7856 4.93521 16.7856 4.26771C16.7856 3.59271 16.4481 2.92521 15.7656 2.23521Z" fill="#2B6CB0"/>
<path d="M13.3958 7.81488C13.1933 7.71738 12.9983 7.61988 12.8183 7.50738C12.6683 7.41738 12.5183 7.31988 12.3758 7.21488C12.2558 7.13988 12.1208 7.02738 11.9858 6.91488C11.9708 6.90738 11.9258 6.86988 11.8658 6.80988C11.6333 6.62238 11.3858 6.36738 11.1533 6.08988C11.1383 6.07488 11.0933 6.02988 11.0558 5.96238C10.9808 5.87988 10.8683 5.73738 10.7708 5.57988C10.6883 5.47488 10.5908 5.32488 10.5008 5.16738C10.3883 4.97988 10.2908 4.79238 10.2008 4.59738C10.1033 4.38738 10.0283 4.19238 9.96081 4.00488L5.92581 8.03988C5.66331 8.30238 5.40831 8.79738 5.35581 9.16488L5.03331 11.3999C4.96581 11.8724 5.09331 12.3149 5.38581 12.6074C5.63331 12.8549 5.97081 12.9824 6.34581 12.9824C6.42831 12.9824 6.51081 12.9749 6.59331 12.9674L8.82081 12.6524C9.18831 12.5999 9.68331 12.3524 9.94581 12.0824L13.9808 8.04738C13.7933 7.98738 13.6058 7.90488 13.3958 7.81488Z" fill="#2B6CB0"/>
</svg>
