<svg width="16" height="16" viewBox="0 0 16 16" fill="none" xmlns="http://www.w3.org/2000/svg">
<path d="M14.666 4.00016V5.6135C14.666 6.66683 13.9993 7.3335 12.946 7.3335H10.666V2.6735C10.666 1.9335 11.2727 1.3335 12.0127 1.3335C12.7394 1.34016 13.406 1.6335 13.886 2.1135C14.366 2.60016 14.666 3.26683 14.666 4.00016Z" fill="#2B6CB0"/>
<path opacity="0.4" d="M1.33398 4.66683V14.0002C1.33398 14.5535 1.96066 14.8668 2.40066 14.5335L3.54065 13.6802C3.80732 13.4802 4.18065 13.5068 4.42065 13.7468L5.52731 14.8602C5.78731 15.1202 6.21399 15.1202 6.47399 14.8602L7.59398 13.7402C7.82732 13.5068 8.20065 13.4802 8.46065 13.6802L9.60065 14.5335C10.0406 14.8602 10.6673 14.5468 10.6673 14.0002V2.66683C10.6673 1.9335 11.2673 1.3335 12.0007 1.3335H4.66732H4.00065C2.00065 1.3335 1.33398 2.52683 1.33398 4.00016V4.66683Z" fill="#2B6CB0"/>
<path d="M8 6.5H4C3.72667 6.5 3.5 6.27333 3.5 6C3.5 5.72667 3.72667 5.5 4 5.5H8C8.27333 5.5 8.5 5.72667 8.5 6C8.5 6.27333 8.27333 6.5 8 6.5Z" fill="#2B6CB0"/>
<path d="M7.5 9.1665H4.5C4.22667 9.1665 4 8.93984 4 8.6665C4 8.39317 4.22667 8.1665 4.5 8.1665H7.5C7.77333 8.1665 8 8.39317 8 8.6665C8 8.93984 7.77333 9.1665 7.5 9.1665Z" fill="#2B6CB0"/>
</svg>
