<svg width="212" height="50" viewBox="0 0 212 50" fill="none" xmlns="http://www.w3.org/2000/svg">
<path d="M45.6452 14.4791C44.3118 9.95829 40.541 6.18746 36.0202 4.85413C32.5827 3.85413 30.2077 3.93746 28.5618 5.16663C26.5827 6.6458 26.3535 9.31246 26.3535 11.2083V16.3958C26.3535 21.5208 28.6868 24.125 33.2702 24.125H39.2493C41.1243 24.125 43.8118 23.8958 45.291 21.9166C46.5618 20.2916 46.666 17.9166 45.6452 14.4791Z" fill="#F6AD55"/>
<path d="M39.8957 27.8333C39.3541 27.2083 38.5624 26.8541 37.7499 26.8541H30.2916C26.6249 26.8541 23.6457 23.8749 23.6457 20.2083V12.7499C23.6457 11.9374 23.2916 11.1458 22.6666 10.6041C22.0624 10.0624 21.2291 9.81245 20.4374 9.91661C15.5416 10.5416 11.0416 13.2291 8.10408 17.2708C5.14574 21.3333 4.06241 26.2916 4.99991 31.2499C6.35408 38.4166 12.0832 44.1458 19.2707 45.5C20.4166 45.7291 21.5624 45.8333 22.7082 45.8333C26.4791 45.8333 30.1249 44.6666 33.2291 42.3958C37.2707 39.4583 39.9582 34.9583 40.5832 30.0624C40.6874 29.2499 40.4374 28.4374 39.8957 27.8333Z" fill="#2B6CB0"/>
<path d="M68.756 34H62.444V16.456H68.588C73.772 16.456 77.348 20.032 77.348 25.264C77.348 30.424 73.844 34 68.756 34ZM68.3 19.288H65.516V31.168H68.468C71.972 31.168 74.108 28.912 74.108 25.264C74.108 21.544 71.924 19.288 68.3 19.288ZM83.8816 34.312C80.3536 34.312 77.8816 31.744 77.8816 28.072C77.8816 24.352 80.3056 21.784 83.7856 21.784C87.3376 21.784 89.5936 24.16 89.5936 27.856V28.744L80.6656 28.768C80.8816 30.856 81.9856 31.912 83.9296 31.912C85.5376 31.912 86.5936 31.288 86.9296 30.16H89.6416C89.1376 32.752 86.9776 34.312 83.8816 34.312ZM83.8096 24.184C82.0816 24.184 81.0256 25.12 80.7376 26.896H86.6896C86.6896 25.264 85.5616 24.184 83.8096 24.184ZM89.825 30.4H92.609C92.633 31.432 93.401 32.08 94.745 32.08C96.113 32.08 96.857 31.528 96.857 30.664C96.857 30.064 96.545 29.632 95.489 29.392L93.353 28.888C91.217 28.408 90.185 27.4 90.185 25.504C90.185 23.176 92.153 21.784 94.889 21.784C97.553 21.784 99.353 23.32 99.377 25.624H96.593C96.569 24.616 95.897 23.968 94.769 23.968C93.617 23.968 92.945 24.496 92.945 25.384C92.945 26.056 93.473 26.488 94.481 26.728L96.617 27.232C98.609 27.688 99.617 28.6 99.617 30.424C99.617 32.824 97.577 34.312 94.649 34.312C91.697 34.312 89.825 32.728 89.825 30.4ZM102.11 19.768C101.102 19.768 100.31 18.976 100.31 17.992C100.31 17.008 101.102 16.24 102.11 16.24C103.07 16.24 103.862 17.008 103.862 17.992C103.862 18.976 103.07 19.768 102.11 19.768ZM100.646 34V22.144H103.574V34H100.646ZM104.728 27.808C104.728 24.352 106.984 21.76 110.368 21.76C112.144 21.76 113.536 22.504 114.232 23.776L114.4 22.144H117.112V33.4C117.112 37.36 114.736 39.832 110.896 39.832C107.488 39.832 105.16 37.888 104.8 34.72H107.728C107.92 36.256 109.096 37.168 110.896 37.168C112.912 37.168 114.208 35.896 114.208 33.928V31.96C113.464 33.064 112 33.76 110.296 33.76C106.936 33.76 104.728 31.24 104.728 27.808ZM107.68 27.736C107.68 29.728 108.952 31.216 110.872 31.216C112.888 31.216 114.136 29.8 114.136 27.736C114.136 25.72 112.912 24.328 110.872 24.328C108.928 24.328 107.68 25.792 107.68 27.736ZM121.87 34H118.942V22.144H121.654L121.894 23.68C122.638 22.48 124.078 21.784 125.686 21.784C128.662 21.784 130.198 23.632 130.198 26.704V34H127.27V27.4C127.27 25.408 126.286 24.448 124.774 24.448C122.974 24.448 121.87 25.696 121.87 27.616V34ZM132.187 27.592V16.456H135.259V27.4C135.259 29.92 136.627 31.312 139.123 31.312C141.619 31.312 143.011 29.896 143.011 27.4V16.456H146.083V27.592C146.083 31.696 143.395 34.288 139.123 34.288C134.875 34.288 132.187 31.72 132.187 27.592ZM148.229 39.496V22.144H150.941L151.133 23.944C151.853 22.576 153.413 21.784 155.213 21.784C158.549 21.784 160.757 24.208 160.757 27.928C160.757 31.624 158.741 34.312 155.213 34.312C153.437 34.312 151.901 33.616 151.157 32.416V39.496H148.229ZM151.181 28.072C151.181 30.208 152.501 31.672 154.517 31.672C156.581 31.672 157.805 30.184 157.805 28.072C157.805 25.96 156.581 24.448 154.517 24.448C152.501 24.448 151.181 25.936 151.181 28.072ZM161.889 39.496V22.144H164.601L164.793 23.944C165.513 22.576 167.073 21.784 168.873 21.784C172.209 21.784 174.417 24.208 174.417 27.928C174.417 31.624 172.401 34.312 168.873 34.312C167.097 34.312 165.561 33.616 164.817 32.416V39.496H161.889ZM164.841 28.072C164.841 30.208 166.161 31.672 168.177 31.672C170.241 31.672 171.465 30.184 171.465 28.072C171.465 25.96 170.241 24.448 168.177 24.448C166.161 24.448 164.841 25.936 164.841 28.072ZM178.24 34H177.291L180.71 24.692H181.867L185.325 34H184.35L183.44 31.53H179.15L178.24 34ZM181.165 26.005L179.436 30.711H183.141L181.399 26.005C181.36 25.875 181.295 25.719 181.282 25.628C181.269 25.706 181.217 25.875 181.165 26.005ZM188.028 34.156C186.195 34.156 185.116 32.752 185.116 30.867C185.116 28.969 186.195 27.539 188.067 27.539C189.107 27.539 189.939 27.994 190.381 28.904V24.523H191.278V34H190.498L190.407 32.713C189.965 33.688 189.081 34.156 188.028 34.156ZM188.184 33.337C189.562 33.337 190.368 32.297 190.368 30.841C190.368 29.398 189.562 28.345 188.184 28.345C186.819 28.345 186.026 29.398 186.026 30.841C186.026 32.297 186.819 33.337 188.184 33.337ZM193.397 34H192.5V27.708H193.28L193.384 28.605C193.696 27.942 194.398 27.539 195.282 27.539C196.27 27.539 197.011 28.059 197.31 28.878C197.596 28.059 198.363 27.539 199.377 27.539C200.742 27.539 201.639 28.423 201.639 29.879V34H200.768V30.061C200.768 28.982 200.17 28.345 199.208 28.345C198.155 28.345 197.531 29.138 197.531 30.113V34H196.647V30.048C196.647 28.982 196.036 28.358 195.087 28.358C194.034 28.358 193.397 29.138 193.397 30.1V34ZM203.236 25.979C202.872 25.979 202.573 25.68 202.573 25.316C202.573 24.952 202.872 24.64 203.236 24.64C203.6 24.64 203.912 24.952 203.912 25.316C203.912 25.68 203.6 25.979 203.236 25.979ZM202.794 34V27.708H203.691V34H202.794ZM205.808 34H204.911V27.708H205.691L205.821 28.8C206.237 27.994 207.069 27.539 207.979 27.539C209.708 27.539 210.423 28.566 210.423 30.152V34H209.526V30.347C209.526 28.878 208.863 28.358 207.823 28.358C206.536 28.358 205.808 29.294 205.808 30.711V34Z" fill="#424242"/>
</svg>
