<svg width="211" height="50" viewBox="0 0 211 50" fill="none" xmlns="http://www.w3.org/2000/svg">
<path d="M45.1471 14.4792C43.8138 9.95842 40.043 6.18758 35.5221 4.85425C32.0846 3.85425 29.7096 3.93758 28.0638 5.16675C26.0846 6.64592 25.8555 9.31258 25.8555 11.2084V16.3959C25.8555 21.5209 28.1888 24.1251 32.7721 24.1251H38.7513C40.6263 24.1251 43.3138 23.8959 44.793 21.9168C46.0638 20.2918 46.168 17.9167 45.1471 14.4792Z" fill="#F6AD55"/>
<path d="M39.3957 27.8334C38.8541 27.2084 38.0624 26.8542 37.2499 26.8542H29.7916C26.1249 26.8542 23.1457 23.8751 23.1457 20.2084V12.7501C23.1457 11.9376 22.7916 11.1459 22.1666 10.6042C21.5624 10.0626 20.7291 9.81257 19.9374 9.91674C15.0416 10.5417 10.5416 13.2292 7.60408 17.2709C4.64574 21.3334 3.56241 26.2917 4.49991 31.2501C5.85408 38.4167 11.5832 44.1459 18.7707 45.5001C19.9166 45.7292 21.0624 45.8334 22.2082 45.8334C25.9791 45.8334 29.6249 44.6667 32.7291 42.3959C36.7707 39.4584 39.4582 34.9584 40.0832 30.0626C40.1874 29.2501 39.9374 28.4376 39.3957 27.8334Z" fill="#2B6CB0"/>
<path d="M68.256 34H61.944V16.456H68.088C73.272 16.456 76.848 20.032 76.848 25.264C76.848 30.424 73.344 34 68.256 34ZM67.8 19.288H65.016V31.168H67.968C71.472 31.168 73.608 28.912 73.608 25.264C73.608 21.544 71.424 19.288 67.8 19.288ZM83.3816 34.312C79.8536 34.312 77.3816 31.744 77.3816 28.072C77.3816 24.352 79.8056 21.784 83.2856 21.784C86.8376 21.784 89.0936 24.16 89.0936 27.856V28.744L80.1656 28.768C80.3816 30.856 81.4856 31.912 83.4296 31.912C85.0376 31.912 86.0936 31.288 86.4296 30.16H89.1416C88.6376 32.752 86.4776 34.312 83.3816 34.312ZM83.3096 24.184C81.5816 24.184 80.5256 25.12 80.2376 26.896H86.1896C86.1896 25.264 85.0616 24.184 83.3096 24.184ZM89.325 30.4H92.109C92.133 31.432 92.901 32.08 94.245 32.08C95.613 32.08 96.357 31.528 96.357 30.664C96.357 30.064 96.045 29.632 94.989 29.392L92.853 28.888C90.717 28.408 89.685 27.4 89.685 25.504C89.685 23.176 91.653 21.784 94.389 21.784C97.053 21.784 98.853 23.32 98.877 25.624H96.093C96.069 24.616 95.397 23.968 94.269 23.968C93.117 23.968 92.445 24.496 92.445 25.384C92.445 26.056 92.973 26.488 93.981 26.728L96.117 27.232C98.109 27.688 99.117 28.6 99.117 30.424C99.117 32.824 97.077 34.312 94.149 34.312C91.197 34.312 89.325 32.728 89.325 30.4ZM101.61 19.768C100.602 19.768 99.8104 18.976 99.8104 17.992C99.8104 17.008 100.602 16.24 101.61 16.24C102.57 16.24 103.362 17.008 103.362 17.992C103.362 18.976 102.57 19.768 101.61 19.768ZM100.146 34V22.144H103.074V34H100.146ZM104.228 27.808C104.228 24.352 106.484 21.76 109.868 21.76C111.644 21.76 113.036 22.504 113.732 23.776L113.9 22.144H116.612V33.4C116.612 37.36 114.236 39.832 110.396 39.832C106.988 39.832 104.66 37.888 104.3 34.72H107.228C107.42 36.256 108.596 37.168 110.396 37.168C112.412 37.168 113.708 35.896 113.708 33.928V31.96C112.964 33.064 111.5 33.76 109.796 33.76C106.436 33.76 104.228 31.24 104.228 27.808ZM107.18 27.736C107.18 29.728 108.452 31.216 110.372 31.216C112.388 31.216 113.636 29.8 113.636 27.736C113.636 25.72 112.412 24.328 110.372 24.328C108.428 24.328 107.18 25.792 107.18 27.736ZM121.37 34H118.442V22.144H121.154L121.394 23.68C122.138 22.48 123.578 21.784 125.186 21.784C128.162 21.784 129.698 23.632 129.698 26.704V34H126.77V27.4C126.77 25.408 125.786 24.448 124.274 24.448C122.474 24.448 121.37 25.696 121.37 27.616V34ZM131.687 27.592V16.456H134.759V27.4C134.759 29.92 136.127 31.312 138.623 31.312C141.119 31.312 142.511 29.896 142.511 27.4V16.456H145.583V27.592C145.583 31.696 142.895 34.288 138.623 34.288C134.375 34.288 131.687 31.72 131.687 27.592ZM147.729 39.496V22.144H150.441L150.633 23.944C151.353 22.576 152.913 21.784 154.713 21.784C158.049 21.784 160.257 24.208 160.257 27.928C160.257 31.624 158.241 34.312 154.713 34.312C152.937 34.312 151.401 33.616 150.657 32.416V39.496H147.729ZM150.681 28.072C150.681 30.208 152.001 31.672 154.017 31.672C156.081 31.672 157.305 30.184 157.305 28.072C157.305 25.96 156.081 24.448 154.017 24.448C152.001 24.448 150.681 25.936 150.681 28.072ZM161.389 39.496V22.144H164.101L164.293 23.944C165.013 22.576 166.573 21.784 168.373 21.784C171.709 21.784 173.917 24.208 173.917 27.928C173.917 31.624 171.901 34.312 168.373 34.312C166.597 34.312 165.061 33.616 164.317 32.416V39.496H161.389ZM164.341 28.072C164.341 30.208 165.661 31.672 167.677 31.672C169.741 31.672 170.965 30.184 170.965 28.072C170.965 25.96 169.741 24.448 167.677 24.448C165.661 24.448 164.341 25.936 164.341 28.072ZM177.74 34H176.791L180.21 24.692H181.367L184.825 34H183.85L182.94 31.53H178.65L177.74 34ZM180.665 26.005L178.936 30.711H182.641L180.899 26.005C180.86 25.875 180.795 25.719 180.782 25.628C180.769 25.706 180.717 25.875 180.665 26.005ZM187.528 34.156C185.695 34.156 184.616 32.752 184.616 30.867C184.616 28.969 185.695 27.539 187.567 27.539C188.607 27.539 189.439 27.994 189.881 28.904V24.523H190.778V34H189.998L189.907 32.713C189.465 33.688 188.581 34.156 187.528 34.156ZM187.684 33.337C189.062 33.337 189.868 32.297 189.868 30.841C189.868 29.398 189.062 28.345 187.684 28.345C186.319 28.345 185.526 29.398 185.526 30.841C185.526 32.297 186.319 33.337 187.684 33.337ZM192.897 34H192V27.708H192.78L192.884 28.605C193.196 27.942 193.898 27.539 194.782 27.539C195.77 27.539 196.511 28.059 196.81 28.878C197.096 28.059 197.863 27.539 198.877 27.539C200.242 27.539 201.139 28.423 201.139 29.879V34H200.268V30.061C200.268 28.982 199.67 28.345 198.708 28.345C197.655 28.345 197.031 29.138 197.031 30.113V34H196.147V30.048C196.147 28.982 195.536 28.358 194.587 28.358C193.534 28.358 192.897 29.138 192.897 30.1V34ZM202.736 25.979C202.372 25.979 202.073 25.68 202.073 25.316C202.073 24.952 202.372 24.64 202.736 24.64C203.1 24.64 203.412 24.952 203.412 25.316C203.412 25.68 203.1 25.979 202.736 25.979ZM202.294 34V27.708H203.191V34H202.294ZM205.308 34H204.411V27.708H205.191L205.321 28.8C205.737 27.994 206.569 27.539 207.479 27.539C209.208 27.539 209.923 28.566 209.923 30.152V34H209.026V30.347C209.026 28.878 208.363 28.358 207.323 28.358C206.036 28.358 205.308 29.294 205.308 30.711V34Z" fill="white"/>
</svg>
