<svg width="16" height="16" viewBox="0 0 16 16" fill="none" xmlns="http://www.w3.org/2000/svg">
<path d="M10.794 1.3335H5.20732C2.78065 1.3335 1.33398 2.78016 1.33398 5.20683V10.7868C1.33398 13.2202 2.78065 14.6668 5.20732 14.6668H10.7873C13.214 14.6668 14.6607 13.2202 14.6607 10.7935V5.20683C14.6673 2.78016 13.2207 1.3335 10.794 1.3335ZM12.0007 8.50016H8.50065V12.0002C8.50065 12.2735 8.27398 12.5002 8.00065 12.5002C7.72732 12.5002 7.50065 12.2735 7.50065 12.0002V8.50016H4.00065C3.72732 8.50016 3.50065 8.2735 3.50065 8.00016C3.50065 7.72683 3.72732 7.50016 4.00065 7.50016H7.50065V4.00016C7.50065 3.72683 7.72732 3.50016 8.00065 3.50016C8.27398 3.50016 8.50065 3.72683 8.50065 4.00016V7.50016H12.0007C12.274 7.50016 12.5007 7.72683 12.5007 8.00016C12.5007 8.2735 12.274 8.50016 12.0007 8.50016Z" fill="white"/>
</svg>
