<svg width="28" height="29" viewBox="0 0 28 29" fill="none" xmlns="http://www.w3.org/2000/svg">
<path d="M9.39258 12.373V13.7264H13.1959V9.93469H11.8426C10.4892 9.93469 9.39258 11.0314 9.39258 12.373Z" fill="#2B6CB0"/>
<path d="M9.39258 16.713C9.39258 18.0546 10.4892 19.1513 11.8309 19.1513H13.1842V15.3596H9.39258V16.713Z" fill="#2B6CB0"/>
<path d="M14.8164 19.1513H16.1697C17.5114 19.1513 18.6081 18.0546 18.6081 16.713V15.3596H14.8164V19.1513Z" fill="#2B6CB0"/>
<path d="M18.889 2.87634H9.11232C4.86565 2.87634 2.33398 5.40801 2.33398 9.65468V19.4197C2.33398 23.678 4.86565 26.2097 9.11232 26.2097H18.8773C23.124 26.2097 25.6556 23.678 25.6556 19.4313V9.65468C25.6673 5.40801 23.1357 2.87634 18.889 2.87634ZM20.2423 16.713C20.2423 18.953 18.4107 20.7847 16.1707 20.7847H11.8307C9.59065 20.7847 7.75898 18.9647 7.75898 16.713V12.373C7.75898 10.133 9.59065 8.30134 11.8307 8.30134H16.1707C18.4107 8.30134 20.2423 10.1213 20.2423 12.373V16.713Z" fill="#2B6CB0"/>
<path d="M16.1697 9.93469H14.8164V13.738H18.6197V12.3847C18.6081 11.0314 17.5114 9.93469 16.1697 9.93469Z" fill="#2B6CB0"/>
</svg>
