<svg width="16" height="16" viewBox="0 0 16 16" fill="none" xmlns="http://www.w3.org/2000/svg">
<path d="M5.99964 11.8335C5.7263 11.8335 5.49964 11.6068 5.49964 11.3335V8.54016L5.01964 9.02015C4.8263 9.21349 4.5063 9.21349 4.31297 9.02015C4.11964 8.82682 4.11964 8.50682 4.31297 8.31349L5.6463 6.98016C5.7863 6.84016 6.0063 6.79349 6.19297 6.87349C6.37964 6.94682 6.49964 7.13349 6.49964 7.33349V11.3335C6.49964 11.6068 6.27297 11.8335 5.99964 11.8335Z" fill="#2B6CB0"/>
<path d="M7.33362 9.16663C7.20695 9.16663 7.08029 9.11996 6.98029 9.01996L5.64695 7.68663C5.45362 7.49329 5.45362 7.17329 5.64695 6.97996C5.84029 6.78663 6.16029 6.78663 6.35362 6.97996L7.68695 8.31329C7.88029 8.50663 7.88029 8.82663 7.68695 9.01996C7.58695 9.11996 7.46029 9.16663 7.33362 9.16663Z" fill="#2B6CB0"/>
<path d="M10.0007 15.1668H6.00065C2.38065 15.1668 0.833984 13.6202 0.833984 10.0002V6.00016C0.833984 2.38016 2.38065 0.833496 6.00065 0.833496H9.33398C9.60732 0.833496 9.83398 1.06016 9.83398 1.3335C9.83398 1.60683 9.60732 1.8335 9.33398 1.8335H6.00065C2.92732 1.8335 1.83398 2.92683 1.83398 6.00016V10.0002C1.83398 13.0735 2.92732 14.1668 6.00065 14.1668H10.0007C13.074 14.1668 14.1673 13.0735 14.1673 10.0002V6.66683C14.1673 6.3935 14.394 6.16683 14.6673 6.16683C14.9407 6.16683 15.1673 6.3935 15.1673 6.66683V10.0002C15.1673 13.6202 13.6207 15.1668 10.0007 15.1668Z" fill="#2B6CB0"/>
<path d="M14.6673 7.16682H12.0007C9.72065 7.16682 8.83398 6.28016 8.83398 4.00016V1.33349C8.83398 1.13349 8.95398 0.946822 9.14065 0.873489C9.32732 0.793489 9.54065 0.840155 9.68732 0.980155L15.0207 6.31349C15.1607 6.45349 15.2073 6.67349 15.1273 6.86016C15.0473 7.04682 14.8673 7.16682 14.6673 7.16682ZM9.83398 2.54016V4.00016C9.83398 5.72016 10.2807 6.16682 12.0007 6.16682H13.4607L9.83398 2.54016Z" fill="#2B6CB0"/>
</svg>
