<svg width="20" height="20" viewBox="0 0 20 20" fill="none" xmlns="http://www.w3.org/2000/svg">
<path d="M7.50052 14.7917C7.15885 14.7917 6.87552 14.5084 6.87552 14.1667V10.6751L6.27552 11.2751C6.03385 11.5167 5.63385 11.5167 5.39219 11.2751C5.15052 11.0334 5.15052 10.6334 5.39219 10.3917L7.05885 8.72507C7.23385 8.55007 7.50885 8.49174 7.74219 8.59174C7.97552 8.68341 8.12552 8.91674 8.12552 9.16674V14.1667C8.12552 14.5084 7.84219 14.7917 7.50052 14.7917Z" fill="#555C6C"/>
<path d="M9.16654 11.4585C9.0082 11.4585 8.84987 11.4002 8.72487 11.2752L7.0582 9.60853C6.81654 9.36686 6.81654 8.96686 7.0582 8.7252C7.29987 8.48353 7.69987 8.48353 7.94154 8.7252L9.6082 10.3919C9.84987 10.6335 9.84987 11.0335 9.6082 11.2752C9.4832 11.4002 9.32487 11.4585 9.16654 11.4585Z" fill="#555C6C"/>
<path d="M12.4993 18.9582H7.49935C2.97435 18.9582 1.04102 17.0248 1.04102 12.4998V7.49984C1.04102 2.97484 2.97435 1.0415 7.49935 1.0415H11.666C12.0077 1.0415 12.291 1.32484 12.291 1.6665C12.291 2.00817 12.0077 2.2915 11.666 2.2915H7.49935C3.65768 2.2915 2.29102 3.65817 2.29102 7.49984V12.4998C2.29102 16.3415 3.65768 17.7082 7.49935 17.7082H12.4993C16.341 17.7082 17.7077 16.3415 17.7077 12.4998V8.33317C17.7077 7.9915 17.991 7.70817 18.3327 7.70817C18.6744 7.70817 18.9577 7.9915 18.9577 8.33317V12.4998C18.9577 17.0248 17.0243 18.9582 12.4993 18.9582Z" fill="#555C6C"/>
<path d="M18.3327 8.95841H14.9993C12.1493 8.95841 11.041 7.85007 11.041 5.00007V1.66674C11.041 1.41674 11.191 1.18341 11.4243 1.09174C11.6577 0.991739 11.9243 1.05007 12.1077 1.22507L18.7743 7.89174C18.9493 8.06674 19.0077 8.34174 18.9077 8.57507C18.8077 8.8084 18.5827 8.95841 18.3327 8.95841ZM12.291 3.17507V5.00007C12.291 7.15007 12.8493 7.70841 14.9993 7.70841H16.8243L12.291 3.17507Z" fill="#555C6C"/>
</svg>
