<svg width="16" height="16" viewBox="0 0 16 16" fill="none" xmlns="http://www.w3.org/2000/svg">
<path d="M13.666 6.7935H11.7393C10.1593 6.7935 8.87268 5.50683 8.87268 3.92683V2.00016C8.87268 1.6335 8.57268 1.3335 8.20602 1.3335H5.37935C3.32602 1.3335 1.66602 2.66683 1.66602 5.04683V10.9535C1.66602 13.3335 3.32602 14.6668 5.37935 14.6668H10.6193C12.6727 14.6668 14.3327 13.3335 14.3327 10.9535V7.46016C14.3327 7.0935 14.0327 6.7935 13.666 6.7935ZM7.68602 9.02016C7.58602 9.12016 7.45935 9.16683 7.33268 9.16683C7.20602 9.16683 7.07935 9.12016 6.97935 9.02016L6.49935 8.54016V11.3335C6.49935 11.6068 6.27268 11.8335 5.99935 11.8335C5.72602 11.8335 5.49935 11.6068 5.49935 11.3335V8.54016L5.01935 9.02016C4.82602 9.2135 4.50602 9.2135 4.31268 9.02016C4.11935 8.82683 4.11935 8.50683 4.31268 8.3135L5.64602 6.98016C5.69268 6.94016 5.73935 6.90683 5.79268 6.88016C5.80602 6.8735 5.82602 6.86683 5.83935 6.86016C5.87935 6.84683 5.91935 6.84016 5.96602 6.8335C5.98602 6.8335 5.99935 6.8335 6.01935 6.8335C6.07268 6.8335 6.12602 6.84683 6.17935 6.86683C6.18602 6.86683 6.18602 6.86683 6.19268 6.86683C6.24602 6.88683 6.29935 6.92683 6.33935 6.96683C6.34602 6.9735 6.35268 6.9735 6.35268 6.98016L7.68602 8.3135C7.87935 8.50683 7.87935 8.82683 7.68602 9.02016Z" fill="white"/>
<path d="M11.6204 5.87317C12.2538 5.87983 13.1338 5.87983 13.8871 5.87983C14.2671 5.87983 14.4671 5.43317 14.2004 5.1665C13.2404 4.19983 11.5204 2.45983 10.5338 1.47317C10.2604 1.19983 9.78711 1.3865 9.78711 1.7665V4.09317C9.78711 5.0665 10.6138 5.87317 11.6204 5.87317Z" fill="white"/>
</svg>
